<?xml version="1.0" encoding="UTF-8"?>
<svg id="Layer_2" data-name="Layer 2" xmlns="http://www.w3.org/2000/svg" viewBox="0 0 496.69 194.85">
  <defs>
    <style>
      .cls-1, .cls-2 {
        fill: #004289;
      }

      .cls-3, .cls-4 {
        fill: #00b5e2;
      }

      .cls-3, .cls-2 {
        fill-rule: evenodd;
      }
    </style>
  </defs>
  <g id="Header">
    <g>
      <path class="cls-2" d="m455.61,111.33l23-25.86h-24l-12.69,14.71-12.7-14.71h-25.26l23.28,26.09-25.53,28.99h25.26l14.12-16.62,14.1,16.62h25.96l-25.53-29.23Zm-60.25-25.86h-22.71v55.09h22.71v-55.09Zm.14-15.28c0-5.13-5.37-8.36-11.43-8.36s-11.72,3.34-11.72,8.36,5.51,8.36,11.57,8.36,11.57-3.12,11.57-8.36Zm-104.8,70.37h22.3v-39.59c2.83-1.79,7.07-3.56,12.14-3.56,10.59,0,12.57,5.57,12.57,14.26v28.89h22.42v-36.35c0-4.68-.14-10.6-6.06-15.27-5.64-4.46-13.26-4.8-16.79-4.8-3.82,0-8.48.45-13.12,1.68l-11.16,12.15v-12.49h-22.3v55.09Zm-12.82-55.09h-22.72v55.09h22.72v-55.09Zm.13-15.28c0-5.13-5.35-8.36-11.42-8.36-6.36,0-11.72,3.34-11.72,8.36s5.5,8.36,11.57,8.36,11.56-3.12,11.56-8.36Zm-81.93,28.99c1.42-.67,4.8-2.34,10.31-2.34,12.13,0,15.51,9.03,15.51,15.39s-3.25,16.83-16.09,16.83c-4.93,0-7.75-1.34-9.73-2.34v-27.54Zm0-37.35h-23v73.7c10.44,3.79,21.46,6.35,32.87,6.35,30.35,0,39.52-17.94,39.52-30.66,0-14.61-10.72-27.1-30.49-27.1-3.95,0-7.19.45-9.17.79l-9.73,11.59v-34.67Zm-81.2,44.26c1.69-8.14,8.04-11.25,14.24-11.25,3.68,0,6.92,1,9.46,3.01,3.54,2.78,3.81,6.35,3.95,8.24h-27.65Zm47.26,20.18c-7.19,2.34-14.81,3.68-22.58,3.68-7.04,0-11.43-.79-16.36-3.35-5.65-2.9-7.91-9.69-7.91-10.81h49.25c0-5.79,0-15.16-8.18-22.74-8.75-8.14-21.32-8.92-28.08-8.92-24,0-37.26,12.71-37.26,28.99,0,14.39,10.72,28.76,41.35,28.76,4.64,0,12-.33,19.75-1.78l10.01-13.83Zm-71.81-1.45h-57.29l50.8-47.49v-15.5H3.82v15.72h47.4L0,125.49v15.06h78.74l11.57-15.73Z"/>
      <path class="cls-3" d="m267.2,27.76c24.13,23.56,64.66,25.09,121.59,4.58,10.69-4.15,14.03,7.67,6.23,10.83-58.29,24.15-115.67,19.88-137-6.66-6.39-8.14,2.41-15.66,9.17-8.75Z"/>
      <path class="cls-3" d="m306.34,18.87c0-10.42,8.45-18.87,18.89-18.87s18.87,8.46,18.87,18.87-8.44,18.89-18.87,18.89-18.89-8.45-18.89-18.89Z"/>
      <g>
        <path class="cls-3" d="m23.72,18.42c-4.17,0-7.14,3.54-7.14,8.26s2.72,8.17,7.2,8.17,7.05-4.17,7.05-8.14c0-4.87-3.02-8.29-7.11-8.29Z"/>
        <path class="cls-3" d="m136.52,20.26c-.21.7-.24.82-.33,1.09l-3.05,8.05h6.59l-2.87-7.99c-.12-.36-.15-.48-.33-1.15Z"/>
        <path class="cls-3" d="m113.31,19.05h-2.27v15.34h2.72c1.75,0,3.69-.18,5.54-1.82,1.66-1.45,2.3-3.69,2.3-5.9s-.64-4.2-2.15-5.66c-1.91-1.85-4.3-1.97-6.14-1.97Z"/>
        <path class="cls-3" d="m3.61,5.83v41.69h192.46V5.83H3.61Zm20.2,32.07c-7.05,0-11.46-4.84-11.46-11.16s4.26-11.28,11.34-11.28,11.37,4.99,11.37,11.13-4.24,11.31-11.25,11.31Zm33.7-.54h-1.39l-13.91-15.43.12,15.43h-3.93V16h3.72l11.65,13.25-.12-13.25h3.87v21.35Zm20.57-.06c-1.85.51-3.75.6-4.84.6-8.02,0-12.37-4.99-12.37-11.1s4.45-11.34,12.28-11.34c3.12,0,5.2.76,5.93,1.03v3.66c-.85-.57-2.72-1.75-5.6-1.75-5.05,0-8.38,3.48-8.38,8.17s3.27,8.41,8.98,8.41c2.75,0,5.2-.85,5.99-1.12l-2,3.45Zm16.61.06h-12.16V16h12.52v3.02h-8.56v5.69h7.38v3.02h-7.38v6.56h9.95l-1.75,3.05Zm25.68-1.27c-2.3,1.18-4.29,1.27-6.14,1.27h-7.11V16h7.2c1.88,0,3.99.18,6.17,1.27,3.72,1.88,5.32,5.69,5.32,9.29s-1.63,7.56-5.44,9.53Zm22.27,1.27l-1.97-5.32h-8.5l-2.03,5.32h-3.99l8.62-21.35h3.87l8.32,21.35h-4.33Zm10.1,0h-3.99V16h3.99v21.35Zm17.21,0h-12.37V16h3.99v18.3h10.13l-1.75,3.05Zm9.66-8.08v8.08h-4.02v-8.08l-7.77-13.28h4.39l5.57,9.65,5.51-9.65h4.08l-7.74,13.28Z"/>
      </g>
      <g>
        <path class="cls-1" d="m261.79,189.29h-11.4v-18.76h4.94v15.01h8.64l-2.18,3.75Z"/>
        <path class="cls-1" d="m270.8,172.5c0,.62-.22,1.11-.65,1.46-.43.36-.94.53-1.53.53s-1.07-.18-1.51-.53c-.44-.35-.66-.84-.66-1.46s.22-1.09.65-1.45c.43-.36.95-.55,1.56-.55.57,0,1.07.18,1.5.53.43.35.65.84.65,1.46Zm-.03,16.8h-4.28v-13.15h4.28v13.15Z"/>
        <path class="cls-1" d="m279.28,189.29h-4.36v-10.1h-1.91l1.62-3.03h.29v-.8c.02-.46.05-.95.11-1.48s.23-1.04.54-1.56c.34-.57.74-1,1.22-1.3.47-.3.94-.52,1.42-.66.47-.14.9-.23,1.29-.25.39-.03.67-.04.85-.04.62,0,1.13.04,1.53.11.4.07.72.14.97.21v3.14c-.14-.07-.34-.15-.58-.23-.25-.08-.55-.12-.9-.12s-.72.08-1.09.25c-.37.17-.65.49-.82.97-.09.23-.14.47-.15.7s-.01.59-.01,1.05h2.87v3.03h-2.87v10.1Z"/>
        <path class="cls-1" d="m295.81,189.19c-.74.18-1.44.29-2.09.35-.65.05-1.19.08-1.64.08-1.43,0-2.65-.2-3.64-.58s-1.79-.91-2.41-1.56c-.61-.65-1.05-1.38-1.33-2.21-.27-.82-.41-1.66-.41-2.51,0-.97.15-1.88.47-2.72.31-.84.76-1.57,1.35-2.19.59-.62,1.32-1.11,2.19-1.46.87-.35,1.87-.53,3-.53.32,0,.7.02,1.13.05s.89.13,1.37.28c.48.15.96.37,1.45.65s.93.66,1.34,1.14c.39.46.69.93.89,1.42.2.49.35.97.45,1.45.1.48.15.94.17,1.38s.03.83.03,1.17h-9.28c0,.07.03.21.08.43.05.21.14.45.27.7.12.26.28.52.47.78s.41.49.68.66c.46.3.92.51,1.38.62.46.12,1.03.17,1.7.17.74,0,1.47-.07,2.18-.23.71-.15,1.4-.37,2.07-.65l-1.89,3.3Zm-1.81-8.11c-.02-.23-.06-.53-.13-.9s-.27-.73-.61-1.06c-.48-.48-1.07-.72-1.78-.72-.58,0-1.14.2-1.66.61-.52.41-.86,1.1-1.02,2.07h5.21Z"/>
        <path class="cls-1" d="m310.38,176.14h4.31v2.76l1.89-2.63c.18-.05.51-.14,1.01-.27s1.03-.19,1.59-.19c.9,0,1.63.13,2.17.4.54.27.96.58,1.25.93.29.36.49.7.6,1.05.11.35.18.61.21.78l1.97-2.74c.44-.14.89-.25,1.33-.32.44-.07.89-.11,1.33-.11.62,0,1.23.1,1.83.29.6.2,1.11.52,1.52.98.44.51.7,1.05.78,1.6s.12,1.12.12,1.73v8.88h-4.31v-6.64c0-.74-.02-1.31-.05-1.7-.04-.39-.12-.73-.27-1.01-.19-.35-.46-.61-.78-.76-.33-.15-.7-.23-1.1-.23-.53,0-1,.09-1.4.28-.4.19-.7.35-.92.49.02.16.03.35.03.57v9h-4.31v-7.23c0-1.03-.15-1.8-.44-2.31s-.88-.77-1.77-.77c-.41,0-.8.07-1.18.2-.38.13-.75.3-1.1.49v9.62h-4.31v-13.15Z"/>
        <path class="cls-1" d="m347.53,186.08c0,.6,0,1.19.03,1.75.02.57.04,1.05.08,1.46h-4.07c-.04-.3-.05-.59-.05-.88s0-.66-.03-1.14l-1.78,2.21c-.25.04-.48.07-.69.09-.21.03-.47.04-.77.04-1.17,0-2.08-.17-2.74-.52-.66-.35-1.14-.75-1.46-1.21-.32-.46-.52-.92-.6-1.37s-.12-.77-.12-.97c0-.64.11-1.18.32-1.64.21-.45.47-.83.76-1.14.29-.31.59-.55.89-.72.3-.17.54-.3.72-.39.55-.23,1.12-.39,1.71-.47.59-.08,1.19-.12,1.79-.12.43,0,.81.02,1.16.05.35.04.61.07.81.11-.02-.32-.07-.63-.15-.94-.08-.31-.22-.59-.42-.85-.2-.26-.49-.46-.86-.61-.37-.15-.87-.23-1.49-.23-.43,0-.84.03-1.24.11-.4.07-.78.16-1.14.27s-.69.22-1,.35-.56.23-.77.32l1.94-3.38c.58-.14,1.17-.25,1.75-.32.58-.07,1.18-.11,1.78-.11.23,0,.51,0,.85.03.34.02.69.07,1.06.15.37.08.75.19,1.13.33.38.14.74.35,1.08.61.37.3.66.62.86.94s.35.65.45.98c.1.33.15.64.17.93.02.29.03.55.03.78v5.47Zm-4.04-2.44c-.16-.02-.37-.04-.64-.05s-.47-.03-.61-.03c-.57,0-1.02.05-1.36.16-.32.09-.58.21-.77.35-.2.14-.34.29-.44.45-.1.16-.16.32-.2.48-.04.16-.05.29-.05.4,0,.46.17.84.52,1.14s.87.45,1.58.45c.43,0,.81-.05,1.16-.16s.61-.2.81-.29v-2.9Z"/>
        <path class="cls-1" d="m364.48,189.29h-4.31v-2.68l-1.81,2.68c-.25.07-.53.14-.85.21-.32.07-.67.11-1.06.11-.97,0-1.81-.2-2.51-.58s-1.28-.9-1.74-1.53c-.46-.63-.8-1.35-1.02-2.15-.22-.81-.33-1.63-.33-2.46,0-.97.15-1.89.44-2.75.29-.86.7-1.61,1.24-2.25.53-.64,1.16-1.14,1.9-1.5.73-.36,1.55-.55,2.46-.55s1.59.12,2.11.36c.52.24.92.45,1.18.62v-6.3h4.31v18.76Zm-4.31-9.68c-.12-.09-.36-.23-.69-.41-.34-.19-.76-.28-1.28-.28-.55,0-1.01.12-1.38.36-.37.24-.67.55-.9.93-.23.38-.39.8-.49,1.27-.1.47-.15.93-.15,1.39,0,.39.05.84.15,1.35.1.51.32.98.68,1.4.19.25.47.47.82.66.35.2.79.29,1.3.29.35,0,.69-.05,1.01-.15.32-.1.63-.23.93-.41v-6.41Z"/>
        <path class="cls-1" d="m379.26,189.19c-.74.18-1.44.29-2.09.35-.65.05-1.19.08-1.64.08-1.43,0-2.65-.2-3.64-.58s-1.79-.91-2.41-1.56c-.61-.65-1.05-1.38-1.33-2.21-.27-.82-.41-1.66-.41-2.51,0-.97.15-1.88.47-2.72.31-.84.76-1.57,1.35-2.19.59-.62,1.32-1.11,2.19-1.46.87-.35,1.87-.53,3-.53.32,0,.7.02,1.13.05s.89.13,1.37.28c.48.15.96.37,1.45.65s.93.66,1.34,1.14c.39.46.69.93.89,1.42s.35.97.45,1.45c.1.48.15.94.17,1.38s.03.83.03,1.17h-9.28c0,.07.03.21.08.43.05.21.14.45.27.7.12.26.28.52.47.78s.41.49.68.66c.46.3.92.51,1.38.62.46.12,1.03.17,1.7.17.74,0,1.47-.07,2.18-.23.71-.15,1.4-.37,2.07-.65l-1.89,3.3Zm-1.81-8.11c-.02-.23-.06-.53-.13-.9s-.27-.73-.61-1.06c-.48-.48-1.07-.72-1.78-.72-.58,0-1.14.2-1.66.61-.52.41-.86,1.1-1.02,2.07h5.21Z"/>
        <path class="cls-1" d="m393.74,184.43c.19.14.42.31.68.49.26.19.61.39,1.08.6.51.23,1.04.42,1.58.56s1.06.21,1.56.21c.46,0,.86-.06,1.2-.17.34-.11.62-.26.83-.44.21-.2.38-.44.51-.72s.2-.58.2-.9c0-.34-.07-.63-.2-.88-.13-.25-.3-.46-.5-.64-.2-.18-.43-.33-.69-.47-.26-.13-.51-.25-.75-.36l-1.06-.43c-.35-.14-.78-.34-1.27-.6-.49-.26-.97-.59-1.43-1.01-.46-.42-.85-.93-1.18-1.56s-.49-1.36-.49-2.23c0-.67.13-1.36.39-2.06.26-.7.66-1.33,1.22-1.89.56-.56,1.26-1.01,2.11-1.37.85-.35,1.88-.53,3.08-.53.89,0,1.7.09,2.46.27.75.18,1.53.45,2.32.82v4.01c-.62-.53-1.27-.94-1.97-1.24-.69-.29-1.45-.44-2.28-.44-.5,0-.91.07-1.24.21s-.58.32-.77.52c-.19.21-.31.42-.39.65-.07.23-.11.44-.11.64,0,.32.07.6.2.84.13.24.31.45.52.62.21.18.46.34.73.48.27.14.55.28.84.4l1.36.56c.34.16.73.36,1.2.61.46.25.9.58,1.33,1,.43.42.78.93,1.08,1.54.29.61.44,1.36.44,2.24,0,.8-.16,1.56-.47,2.29-.31.73-.77,1.36-1.37,1.9-.6.54-1.34.97-2.22,1.3-.88.33-1.87.49-2.99.49-.18,0-.44,0-.8-.03-.35-.02-.78-.07-1.26-.15s-1.03-.2-1.62-.35c-.59-.15-1.21-.36-1.85-.62v-4.2Z"/>
        <path class="cls-1" d="m413.89,172.5c0,.62-.22,1.11-.65,1.46-.43.36-.94.53-1.53.53s-1.07-.18-1.51-.53c-.44-.35-.66-.84-.66-1.46s.22-1.09.65-1.45c.43-.36.95-.55,1.56-.55.57,0,1.07.18,1.5.53.43.35.65.84.65,1.46Zm-.03,16.8h-4.28v-13.15h4.28v13.15Z"/>
        <path class="cls-1" d="m417.69,176.14h4.31v2.76l1.89-2.63c.18-.05.51-.14,1.01-.27s1.03-.19,1.59-.19c.9,0,1.63.13,2.17.4.54.27.96.58,1.25.93.29.36.49.7.6,1.05.11.35.18.61.21.78l1.97-2.74c.44-.14.89-.25,1.33-.32.44-.07.89-.11,1.33-.11.62,0,1.23.1,1.83.29.6.2,1.11.52,1.52.98.44.51.7,1.05.78,1.6s.12,1.12.12,1.73v8.88h-4.31v-6.64c0-.74-.02-1.31-.05-1.7-.04-.39-.12-.73-.27-1.01-.19-.35-.46-.61-.78-.76-.33-.15-.7-.23-1.1-.23-.53,0-1,.09-1.4.28-.4.19-.7.35-.92.49.02.16.03.35.03.57v9h-4.31v-7.23c0-1.03-.15-1.8-.44-2.31s-.88-.77-1.77-.77c-.41,0-.8.07-1.18.2-.38.13-.75.3-1.1.49v9.62h-4.31v-13.15Z"/>
        <path class="cls-1" d="m449.58,176.16c.21-.07.47-.14.77-.21.3-.07.66-.11,1.06-.11.87,0,1.65.16,2.35.49.7.33,1.3.78,1.79,1.37.5.58.87,1.29,1.13,2.11.26.82.39,1.73.39,2.73,0,1.15-.16,2.17-.49,3.04s-.77,1.61-1.33,2.21c-.56.59-1.2,1.05-1.93,1.36-.73.31-1.5.47-2.29.47s-1.46-.12-1.99-.35c-.53-.23-.94-.44-1.22-.61v6.19h-4.36v-18.68h4.36l-.03,2.63,1.78-2.63Zm-1.75,9.62c.12.09.35.24.69.44.33.21.76.31,1.27.31.88,0,1.58-.36,2.09-1.09s.77-1.67.77-2.84c0-.48-.06-.96-.17-1.43-.11-.48-.3-.9-.54-1.25-.25-.32-.55-.58-.93-.78s-.8-.31-1.29-.31c-.35,0-.68.04-.98.13-.3.09-.6.22-.9.4v6.43Z"/>
        <path class="cls-1" d="m464.65,189.29h-4.36v-18.76h4.36v18.76Z"/>
        <path class="cls-1" d="m479.37,189.19c-.74.18-1.44.29-2.09.35-.65.05-1.19.08-1.64.08-1.43,0-2.65-.2-3.64-.58s-1.79-.91-2.41-1.56c-.61-.65-1.05-1.38-1.33-2.21-.27-.82-.41-1.66-.41-2.51,0-.97.15-1.88.47-2.72.31-.84.76-1.57,1.35-2.19.59-.62,1.32-1.11,2.19-1.46.87-.35,1.87-.53,3-.53.32,0,.7.02,1.13.05s.89.13,1.37.28c.48.15.96.37,1.45.65s.93.66,1.34,1.14c.39.46.69.93.89,1.42s.35.97.45,1.45c.1.48.15.94.17,1.38s.03.83.03,1.17h-9.28c0,.07.03.21.08.43.05.21.14.45.27.7.12.26.28.52.47.78s.41.49.68.66c.46.3.92.51,1.38.62.46.12,1.03.17,1.7.17.74,0,1.47-.07,2.18-.23.71-.15,1.4-.37,2.07-.65l-1.89,3.3Zm-1.81-8.11c-.02-.23-.06-.53-.13-.9s-.27-.73-.61-1.06c-.48-.48-1.07-.72-1.78-.72-.58,0-1.14.2-1.66.61-.52.41-.86,1.1-1.02,2.07h5.21Z"/>
        <path class="cls-1" d="m489.1,187.3c0,.62-.21,1.15-.62,1.58-.42.43-.95.65-1.61.65s-1.22-.23-1.63-.68c-.42-.45-.62-.97-.62-1.55s.2-1.11.61-1.57c.41-.46.95-.69,1.62-.69.35,0,.67.06.96.19s.52.29.72.51c.19.21.34.46.44.73.1.28.15.55.15.84Z"/>
      </g>
      <path class="cls-2" d="m489.6,97.92c-3.57,0-6.45-2.82-6.45-6.44s2.82-6.45,6.46-6.45,6.44,2.92,6.44,6.42-2.82,6.47-6.45,6.47Zm7.09-6.47c0-3.84-3-7.07-7.12-7.07-3.82,0-7.07,3.01-7.07,7.1s3.4,7.08,7.07,7.08c4.03,0,7.12-3.16,7.12-7.11Zm-8.38-3.1h1.26c1.08,0,1.7.16,1.7,1.04,0,1.01-.82,1.11-1.81,1.11h-1.15v-2.15Zm-1.88-1.45v9.04h1.88v-3.93c1.53,0,2.02,0,2.26,1.3.03.2.17,1.15.18,1.35.16.79.33,1.13.4,1.28h2.16c-.44-.81-.55-1.63-.74-2.75-.2-1.3-.59-1.51-1.13-1.79.31-.1,1.7-.56,1.7-2.14,0-1.85-1.56-2.32-3.16-2.36h-3.57Z"/>
      <g>
        <path class="cls-4" d="m297.06,158.93c.02,1.6,1.16,2.89,2.83,2.89,1.25,0,2.06-.75,2.63-1.79l1.25.72c-.83,1.55-2.23,2.43-3.99,2.43-2.58,0-4.23-1.97-4.23-4.45s1.49-4.68,4.2-4.68,4.25,2.3,4.1,4.88h-6.79Zm5.24-1.25c-.2-1.25-1.25-2.26-2.54-2.26s-2.45,1.01-2.63,2.26h5.17Z"/>
        <path class="cls-4" d="m309.21,156.3c-.2-.46-.64-.88-1.18-.88s-1.07.4-1.07.96c0,.79.99,1.09,2.01,1.51s2.01,1.03,2.01,2.48c0,1.64-1.32,2.82-2.93,2.82-1.45,0-2.6-.83-3.06-2.19l1.31-.55c.37.81.79,1.38,1.77,1.38.79,0,1.4-.54,1.4-1.33,0-1.93-3.9-1.27-3.9-3.99,0-1.45,1.18-2.45,2.58-2.45.99,0,1.91.7,2.3,1.6l-1.23.64Z"/>
        <path class="cls-4" d="m314.32,162.94h-1.47v-15.18h1.47v15.18Z"/>
        <path class="cls-4" d="m318.96,151.03c0,.59-.48,1.05-1.05,1.05s-1.05-.46-1.05-1.05.48-1.05,1.05-1.05,1.05.48,1.05,1.05Zm-.31,11.91h-1.47v-8.65h1.47v8.65Z"/>
        <path class="cls-4" d="m327.97,156.87h-.04c-.68-.86-1.53-1.45-2.69-1.45-1.78,0-3.05,1.47-3.05,3.2s1.18,3.2,2.98,3.2c1.23,0,2.1-.55,2.82-1.49h.04v1.97c-.85.57-1.71.88-2.74.88-2.61,0-4.6-1.95-4.6-4.56s2.08-4.57,4.62-4.57c.94,0,1.9.31,2.67.87v1.95Z"/>
        <path class="cls-4" d="m338.04,162.94h-1.47v-1.2h-.04c-.75.96-1.77,1.44-2.98,1.44-2.54,0-4.14-2.15-4.14-4.55s1.56-4.58,4.16-4.58c1.18,0,2.24.55,2.96,1.47h.04v-1.23h1.47v8.65Zm-7.12-4.42c0,1.69.99,3.3,2.83,3.3s2.89-1.53,2.89-3.28-1.09-3.13-2.91-3.13c-1.71,0-2.82,1.49-2.82,3.11Z"/>
        <path class="cls-4" d="m341.99,155.23h.04c.52-.68.96-1.18,1.91-1.18.5,0,.9.17,1.32.41l-.7,1.34c-.29-.2-.5-.39-.88-.39-1.62,0-1.69,2.08-1.69,3.2v4.32h-1.47v-8.65h1.47v.94Z"/>
        <path class="cls-4" d="m346.52,147.76h1.47v7.77h.04c.7-.92,1.79-1.47,2.96-1.47,2.58,0,4.16,2.12,4.16,4.57s-1.6,4.56-4.14,4.56c-1.2,0-2.28-.5-2.98-1.44h-.04v1.2h-1.47v-15.18Zm1.4,10.76c0,1.69.99,3.3,2.83,3.3s2.89-1.53,2.89-3.28-1.09-3.13-2.91-3.13c-1.71,0-2.82,1.49-2.82,3.11Z"/>
        <path class="cls-4" d="m364.94,162.94h-1.47v-1.2h-.04c-.75.96-1.77,1.44-2.98,1.44-2.54,0-4.14-2.15-4.14-4.55s1.56-4.58,4.16-4.58c1.18,0,2.24.55,2.96,1.47h.04v-1.23h1.47v8.65Zm-7.12-4.42c0,1.69.99,3.3,2.83,3.3s2.89-1.53,2.89-3.28-1.09-3.13-2.91-3.13c-1.71,0-2.82,1.49-2.82,3.11Z"/>
        <path class="cls-4" d="m375.22,161.58v1.36h-8.94l6.24-7.29h-5.08v-1.36h8.04l-6.22,7.29h5.96Z"/>
        <path class="cls-4" d="m377.61,158.93c.02,1.6,1.16,2.89,2.83,2.89,1.25,0,2.06-.75,2.63-1.79l1.25.72c-.83,1.55-2.23,2.43-3.99,2.43-2.58,0-4.23-1.97-4.23-4.45s1.49-4.68,4.2-4.68,4.25,2.3,4.1,4.88h-6.79Zm5.24-1.25c-.2-1.25-1.25-2.26-2.54-2.26s-2.45,1.01-2.63,2.26h5.17Z"/>
        <path class="cls-4" d="m387.66,155.52h.04c.72-.96,1.79-1.47,2.98-1.47,2.54,0,4.14,2.19,4.14,4.58s-1.57,4.55-4.16,4.55c-1.18,0-2.26-.52-2.96-1.45h-.04v6.07h-1.47v-13.51h1.47v1.23Zm-.07,3c0,1.69.99,3.3,2.83,3.3s2.89-1.53,2.89-3.28-1.09-3.13-2.91-3.13c-1.71,0-2.82,1.49-2.82,3.11Z"/>
        <path class="cls-4" d="m398.77,151.03c0,.59-.48,1.05-1.05,1.05s-1.05-.46-1.05-1.05.48-1.05,1.05-1.05,1.05.48,1.05,1.05Zm-.31,11.91h-1.47v-8.65h1.47v8.65Z"/>
        <path class="cls-4" d="m402.84,155.34h.04c.61-.83,1.4-1.29,2.47-1.29,2.39,0,2.94,1.73,2.94,3.76v5.13h-1.47v-4.88c0-1.4-.11-2.65-1.82-2.65-2.02,0-2.15,1.88-2.15,3.42v4.1h-1.47v-8.65h1.47v1.05Z"/>
        <path class="cls-4" d="m411.65,158.93c.02,1.6,1.16,2.89,2.83,2.89,1.25,0,2.06-.75,2.63-1.79l1.25.72c-.83,1.55-2.23,2.43-3.99,2.43-2.58,0-4.23-1.97-4.23-4.45s1.49-4.68,4.2-4.68,4.25,2.3,4.1,4.88h-6.79Zm5.24-1.25c-.2-1.25-1.25-2.26-2.54-2.26s-2.45,1.01-2.63,2.26h5.17Z"/>
        <path class="cls-4" d="m433.69,162.94h-1.47v-1.2h-.04c-.75.96-1.77,1.44-2.98,1.44-2.54,0-4.14-2.15-4.14-4.55s1.56-4.58,4.16-4.58c1.18,0,2.24.55,2.96,1.47h.04v-1.23h1.47v8.65Zm-7.12-4.42c0,1.69.99,3.3,2.83,3.3s2.89-1.53,2.89-3.28-1.09-3.13-2.91-3.13c-1.71,0-2.82,1.49-2.82,3.11Z"/>
        <path class="cls-4" d="m442.67,156.87h-.04c-.68-.86-1.53-1.45-2.69-1.45-1.78,0-3.05,1.47-3.05,3.2s1.18,3.2,2.98,3.2c1.23,0,2.1-.55,2.82-1.49h.04v1.97c-.85.57-1.71.88-2.74.88-2.61,0-4.6-1.95-4.6-4.56s2.08-4.57,4.62-4.57c.94,0,1.9.31,2.67.87v1.95Z"/>
        <path class="cls-4" d="m445.58,158.93c.02,1.6,1.16,2.89,2.83,2.89,1.25,0,2.06-.75,2.63-1.79l1.25.72c-.83,1.55-2.23,2.43-3.99,2.43-2.58,0-4.23-1.97-4.23-4.45s1.49-4.68,4.2-4.68,4.25,2.3,4.1,4.88h-6.79Zm5.24-1.25c-.2-1.25-1.25-2.26-2.54-2.26s-2.45,1.01-2.63,2.26h5.17Z"/>
        <path class="cls-4" d="m455.77,162.94h-1.47v-7.29h-.9v-1.36h.9v-3.11h1.47v3.11h1.55v1.36h-1.55v7.29Z"/>
        <path class="cls-4" d="m466.37,162.94h-1.47v-1.2h-.04c-.75.96-1.77,1.44-2.98,1.44-2.54,0-4.14-2.15-4.14-4.55s1.56-4.58,4.16-4.58c1.18,0,2.24.55,2.96,1.47h.04v-1.23h1.47v8.65Zm-7.12-4.42c0,1.69.99,3.3,2.83,3.3s2.89-1.53,2.89-3.28-1.09-3.13-2.91-3.13c-1.71,0-2.82,1.49-2.82,3.11Z"/>
        <path class="cls-4" d="m470.47,162.94h-1.47v-7.29h-.9v-1.36h.9v-3.11h1.47v3.11h1.55v1.36h-1.55v7.29Z"/>
        <path class="cls-4" d="m473.91,158.93c.02,1.6,1.16,2.89,2.83,2.89,1.25,0,2.06-.75,2.63-1.79l1.25.72c-.83,1.55-2.23,2.43-3.99,2.43-2.58,0-4.23-1.97-4.23-4.45s1.49-4.68,4.2-4.68,4.25,2.3,4.1,4.88h-6.79Zm5.24-1.25c-.2-1.25-1.25-2.26-2.54-2.26s-2.45,1.01-2.63,2.26h5.17Z"/>
      </g>
    </g>
  </g>
</svg>